<svg xmlns="http://www.w3.org/2000/svg" viewBox="0 0 228 195"><defs><style>.cls-1{fill:none;stroke-width:12px;}.cls-1,.cls-3{stroke:#fff;stroke-miterlimit:10;}.cls-2,.cls-3{fill:#fff;}</style></defs><g id="Layer_2" data-name="Layer 2"><g id="Figure"><rect class="cls-1" x="6" y="6" width="216" height="183" rx="4.48"/></g><g id="Arrow"><path class="cls-2" d="M166.06,45a124.65,124.65,0,0,1-6.65,23,131.17,131.17,0,0,1-10.75,21.54,106,106,0,0,1-6.93,10,98.63,98.63,0,0,1-8.23,9q-4.35,4.31-9.06,8.23c-.8.65-1.57,1.32-2.38,1.94l-2.45,1.85c-1.61,1.26-3.32,2.4-5,3.59-3.43,2.23-7,4.42-10.55,6.3s-7.22,3.7-10.91,5.31a161,161,0,0,1-22.72,7.74,209.6,209.6,0,0,1-23.36,4.85c-3.94.59-7.9,1.1-11.91,1.43-2,.17-4,.32-6.11.4-1,0-2.1.07-3.2.08-.57,0-1.11,0-1.74,0l-.95,0L22,150.18l2-18.36.27,0,.48,0,1.12,0c.81,0,1.67,0,2.54,0,1.73-.05,3.53-.15,5.33-.28,3.6-.27,7.25-.61,10.88-1.07,7.26-.92,14.51-2.17,21.65-3.78q5.35-1.23,10.6-2.75c3.5-1,7-2.11,10.38-3.27s6.79-2.47,10.08-3.92a92.58,92.58,0,0,0,9.45-4.88c1.49-1,3-1.86,4.46-2.88l2.17-1.56c.71-.52,1.39-1.09,2.1-1.64,1.41-1.07,2.74-2.26,4.08-3.43.66-.6,1.29-1.23,1.93-1.85s1.29-1.23,1.88-1.9c2.48-2.57,4.72-5.36,7-8.13s4.43-5.64,6.48-8.6a138.5,138.5,0,0,0,18.48-39.33Z"/><polygon class="cls-2" points="140.36 53.01 159.38 49.6 175.04 60.91 167.06 15.86 140.36 53.01"/></g><g id="Data"><rect class="cls-2" x="15" y="170" width="22" height="13"/><rect class="cls-2" x="40" y="164" width="22" height="19"/><rect class="cls-2" x="65" y="153" width="22" height="30"/><rect class="cls-2" x="90" y="141" width="22" height="42"/><rect class="cls-2" x="115" y="131" width="22" height="52"/><rect class="cls-2" x="140" y="114" width="22" height="69"/><rect class="cls-2" x="165" y="75" width="22" height="108"/><rect class="cls-3" x="190.5" y="38.5" width="22" height="144"/></g></g></svg>